<?xml version="1.0" encoding="UTF-8"?>
<!DOCTYPE svg PUBLIC "-//W3C//DTD SVG 1.1//EN" "http://www.w3.org/Graphics/SVG/1.1/DTD/svg11.dtd">
<svg xmlns="http://www.w3.org/2000/svg" version="1.1" width="485px" height="272px" style="shape-rendering:geometricPrecision; text-rendering:geometricPrecision; image-rendering:optimizeQuality; fill-rule:evenodd; clip-rule:evenodd" xmlns:xlink="http://www.w3.org/1999/xlink">
<g><path style="opacity:0.182" fill="#3c3238" d="M 124.5,18.5 C 120.787,15.8925 117.287,16.2259 114,19.5C 112.933,23.4785 114.099,26.4785 117.5,28.5C 118.482,29.1408 119.482,29.8075 120.5,30.5C 121.5,29.8333 122.5,29.1667 123.5,28.5C 124.583,29.365 124.749,30.365 124,31.5C 116.842,33.8202 112.009,31.4868 109.5,24.5C 109.5,23.5 109.5,22.5 109.5,21.5C 111.909,14.4561 116.909,11.7894 124.5,13.5C 124.5,15.1667 124.5,16.8333 124.5,18.5 Z"/></g>
<g><path style="opacity:0.006" fill="#dcdbdc" d="M 124.5,18.5 C 121.713,19.4767 118.713,19.81 115.5,19.5C 115.756,22.5979 116.422,25.5979 117.5,28.5C 114.099,26.4785 112.933,23.4785 114,19.5C 117.287,16.2259 120.787,15.8925 124.5,18.5 Z"/></g>
<g><path style="opacity:0.848" fill="#272727" d="M 109.5,21.5 C 109.5,22.5 109.5,23.5 109.5,24.5C 98.7779,24.1254 88.1112,24.6254 77.5,26C 70.8513,29.3141 66.3513,34.4808 64,41.5C 63.6667,53.1667 63.3333,64.8333 63,76.5C 58.5616,91.6467 48.395,98.8133 32.5,98C 20.2249,101.186 13.8916,109.186 13.5,122C 13.8916,134.814 20.2249,142.814 32.5,146C 145.167,146.333 257.833,146.667 370.5,147C 384.427,151.341 391.094,160.841 390.5,175.5C 389.85,175.196 389.183,174.863 388.5,174.5C 387.83,176.291 387.163,177.958 386.5,179.5C 388.98,165.506 383.647,156.006 370.5,151C 296.501,150.5 222.501,150.333 148.5,150.5C 145.5,150.5 142.5,150.5 139.5,150.5C 102.469,150.955 65.4692,150.455 28.5,149C 13.2453,141.989 7.41193,130.156 11,113.5C 13.2854,105.549 18.1187,99.7152 25.5,96C 33.2879,94.7378 40.9546,93.0711 48.5,91C 53.8001,87.8995 57.3001,83.3995 59,77.5C 59.099,64.4531 59.7657,51.4531 61,38.5C 64.9084,27.4567 72.7417,21.6233 84.5,21C 93.0104,20.1768 101.344,20.3434 109.5,21.5 Z"/></g>
<g><path style="opacity:0.004" fill="#fefffe" d="M 94.5,84.5 C 94.6839,89.8443 96.3505,94.6776 99.5,99C 97.236,99.2362 95.0693,99.7362 93,100.5C 92.4926,101.996 92.9926,103.163 94.5,104C 92.9512,105.214 91.7845,106.714 91,108.5C 89.7142,104.204 89.2142,100.038 89.5,96C 90.7691,91.9649 92.4358,88.1315 94.5,84.5 Z"/></g>
<g><path style="opacity:0.004" fill="#fefffe" d="M 99.5,119.5 C 98.8333,118.167 98.8333,118.167 99.5,119.5 Z"/></g>
<g><path style="opacity:0.004" fill="#fefffe" d="M 99.5,119.5 C 100.167,119.5 100.5,119.833 100.5,120.5C 100.167,120.167 99.8333,119.833 99.5,119.5 Z"/></g>
<g><path style="opacity:0.004" fill="#fefffe" d="M 100.5,120.5 C 101.833,121.167 101.833,121.167 100.5,120.5 Z"/></g>
<g><path style="opacity:0.004" fill="#fefffe" d="M 102.5,122.5 C 103.077,121.227 103.743,121.227 104.5,122.5C 104.03,123.463 103.363,123.463 102.5,122.5 Z"/></g>
<g><path style="opacity:0.004" fill="#e2e2e2" d="M 110.5,121.5 C 113.225,124.462 116.392,125.795 120,125.5C 120.667,126.5 120.667,127.5 120,128.5C 115.172,127.083 110.339,125.583 105.5,124C 107.653,123.901 109.319,123.067 110.5,121.5 Z"/></g>
<g><path style="opacity:0.006" fill="#fefefe" d="M 195.5,157.5 C 191.864,157.594 188.364,158.261 185,159.5C 168.22,158.448 151.387,157.448 134.5,156.5C 129.298,155.933 124.631,157.1 120.5,160C 116.74,159.806 113.574,160.973 111,163.5C 110.536,162.906 110.369,162.239 110.5,161.5C 112.144,160.684 113.31,159.35 114,157.5C 116.147,158.476 118.314,158.309 120.5,157C 119.944,156.617 119.611,156.117 119.5,155.5C 120.695,155.678 121.862,156.011 123,156.5C 124.011,156.108 124.511,155.441 124.5,154.5C 125.833,154.833 127.167,155.167 128.5,155.5C 134.466,154.447 140.466,153.947 146.5,154C 146.167,154.333 145.833,154.667 145.5,155C 153.02,155.709 160.52,155.543 168,154.5C 170.034,154.354 171.701,155.02 173,156.5C 174.96,153.854 176.96,153.854 179,156.5C 180.763,156.025 182.43,155.358 184,154.5C 188.039,155.056 191.872,156.056 195.5,157.5 Z"/></g>
<g><path style="opacity:0.02" fill="#b7b6b7" d="M 139.5,150.5 C 142.5,150.5 145.5,150.5 148.5,150.5C 166.942,152.865 185.608,154.198 204.5,154.5C 203.455,155.878 202.122,156.878 200.5,157.5C 199.167,157.833 197.833,158.167 196.5,158.5C 196.5,157.833 196.167,157.5 195.5,157.5C 191.872,156.056 188.039,155.056 184,154.5C 182.43,155.358 180.763,156.025 179,156.5C 176.96,153.854 174.96,153.854 173,156.5C 171.701,155.02 170.034,154.354 168,154.5C 160.52,155.543 153.02,155.709 145.5,155C 145.833,154.667 146.167,154.333 146.5,154C 140.466,153.947 134.466,154.447 128.5,155.5C 127.167,155.167 125.833,154.833 124.5,154.5C 124.511,155.441 124.011,156.108 123,156.5C 121.862,156.011 120.695,155.678 119.5,155.5C 126.064,153.406 132.73,151.74 139.5,150.5 Z"/></g>
<g><path style="opacity:0.004" fill="#eae9e9" d="M 204.5,154.5 C 210.424,156.133 215.424,159.3 219.5,164C 216.983,164.257 214.65,163.59 212.5,162C 213.696,161.346 213.696,160.846 212.5,160.5C 211.833,160.833 211.167,161.167 210.5,161.5C 210.264,160.753 209.93,159.92 209.5,159C 206.305,158.819 203.305,158.319 200.5,157.5C 202.122,156.878 203.455,155.878 204.5,154.5 Z"/></g>
<g><path style="opacity:0.004" fill="#fefffe" d="M 196.5,158.5 C 195.749,159.573 194.749,159.74 193.5,159C 194.448,158.517 195.448,158.351 196.5,158.5 Z"/></g>
<g><path style="opacity:0.047" fill="#c6c6c6" d="M 119.5,155.5 C 119.611,156.117 119.944,156.617 120.5,157C 118.314,158.309 116.147,158.476 114,157.5C 113.31,159.35 112.144,160.684 110.5,161.5C 106.4,165.052 101.733,167.219 96.5,168C 102.457,160.688 110.124,156.521 119.5,155.5 Z"/></g>
<g><path style="opacity:0.006" fill="#f6f6f6" d="M 213.5,193.5 C 213.083,192.876 212.416,192.543 211.5,192.5C 208.885,192.684 206.719,193.684 205,195.5C 204.107,194.919 203.107,194.585 202,194.5C 194.345,195.085 186.845,195.752 179.5,196.5C 164.624,193.704 149.957,192.538 135.5,193C 136.579,192.044 137.745,191.211 139,190.5C 156.892,191.426 174.892,192.426 193,193.5C 196.5,193.333 200,193.167 203.5,193C 205.758,191.07 208.258,189.57 211,188.5C 212.947,189.11 214.781,189.943 216.5,191C 215.627,192.045 214.627,192.878 213.5,193.5 Z"/></g>
<g><path style="opacity:0.067" fill="#bebcbe" d="M 213.5,193.5 C 210.81,195.729 207.81,197.396 204.5,198.5C 198.167,198.5 191.833,198.5 185.5,198.5C 183.626,197.715 181.626,197.048 179.5,196.5C 186.845,195.752 194.345,195.085 202,194.5C 203.107,194.585 204.107,194.919 205,195.5C 206.719,193.684 208.885,192.684 211.5,192.5C 212.416,192.543 213.083,192.876 213.5,193.5 Z"/></g>
<g><path style="opacity:0.668" fill="#272727" d="M 390.5,175.5 C 389.671,190.829 381.671,199.663 366.5,202C 288.5,202.333 210.5,202.667 132.5,203C 127.243,205.256 123.743,209.09 122,214.5C 121.5,221.826 121.334,229.159 121.5,236.5C 120.5,236.5 119.5,236.5 118.5,236.5C 116.694,226.728 117.527,217.061 121,207.5C 124.092,203.072 128.259,200.239 133.5,199C 150.83,198.5 168.163,198.333 185.5,198.5C 191.833,198.5 198.167,198.5 204.5,198.5C 258.834,198.667 313.168,198.5 367.5,198C 378.298,196.368 384.632,190.201 386.5,179.5C 387.163,177.958 387.83,176.291 388.5,174.5C 389.183,174.863 389.85,175.196 390.5,175.5 Z"/></g>
<g><path style="opacity:0.005" fill="#ededed" d="M 375.5,215.5 C 384.866,214.446 393.533,216.28 401.5,221C 403.661,223.149 404.828,225.649 405,228.5C 395.13,220.149 383.63,216.315 370.5,217C 372.382,216.802 374.048,216.302 375.5,215.5 Z"/></g>
<g><path style="opacity:0.004" fill="#fefffe" d="M -0.5,224.5 C -0.5,222.5 -0.5,220.5 -0.5,218.5C 2.68627,217.037 6.0196,216.537 9.5,217C 6.27111,219.741 2.93778,222.241 -0.5,224.5 Z"/></g>
<g><path style="opacity:0.004" fill="#fefffe" d="M 12.5,216.5 C 14.337,216.639 14.6704,217.306 13.5,218.5C 12.7025,218.043 12.3691,217.376 12.5,216.5 Z"/></g>
<g><path style="opacity:0.005" fill="#f1efef" d="M 144.5,219.5 C 149.426,215.141 155.259,213.474 162,214.5C 174.321,215.665 186.654,216.665 199,217.5C 209.93,215.803 220.763,216.303 231.5,219C 219.257,219.714 207.257,219.547 195.5,218.5C 193.056,219.222 190.722,220.222 188.5,221.5C 182.605,221.479 176.772,221.479 171,221.5C 168.62,220.799 166.453,219.633 164.5,218C 161.443,217.744 158.443,217.244 155.5,216.5C 151.776,217.376 148.11,218.376 144.5,219.5 Z"/></g>
<g><path style="opacity:0.005" fill="#fefffe" d="M 144.5,219.5 C 144.027,220.906 143.027,221.573 141.5,221.5C 141.973,220.094 142.973,219.427 144.5,219.5 Z"/></g>
<g><path style="opacity:0.004" fill="#fefffe" d="M 141.5,221.5 C 141.155,224.198 139.822,226.198 137.5,227.5C 138.34,225.147 139.674,223.147 141.5,221.5 Z"/></g>
<g><path style="opacity:0.004" fill="#fefffe" d="M 137.5,227.5 C 136.987,231.553 136.154,235.553 135,239.5C 134.507,235.13 135.34,231.13 137.5,227.5 Z"/></g>
<g><path style="opacity:0.329" fill="#3c343a" d="M 118.5,236.5 C 119.5,236.5 120.5,236.5 121.5,236.5C 123.508,238.268 125.674,239.934 128,241.5C 131.397,253.769 126.897,258.602 114.5,256C 107.626,247.977 108.96,241.477 118.5,236.5 Z M 125.5,246.5 C 126.209,247.404 127.209,247.737 128.5,247.5C 127.487,254.682 123.82,256.349 117.5,252.5C 116.859,251.007 115.859,250.007 114.5,249.5C 116.826,248.31 117.993,246.31 118,243.5C 120.114,245.3 122.614,246.3 125.5,246.5 Z"/></g>
<g><path style="opacity:0.016" fill="#d4d0d3" d="M 125.5,246.5 C 122.614,246.3 120.114,245.3 118,243.5C 117.993,246.31 116.826,248.31 114.5,249.5C 113.596,248.791 113.263,247.791 113.5,246.5C 114.316,243.193 116.483,241.527 120,241.5C 121.872,242.035 123.538,242.035 125,241.5C 127.096,242.715 126.929,243.549 124.5,244C 125.252,244.671 125.586,245.504 125.5,246.5 Z"/></g>
<g><path style="opacity:0.004" fill="#fefffe" d="M 137.5,246.5 C 136.475,246.103 136.308,245.437 137,244.5C 137.464,245.094 137.631,245.761 137.5,246.5 Z"/></g>
<g><path style="opacity:0.004" fill="#fefffe" d="M 137.5,246.5 C 138.525,246.897 138.692,247.563 138,248.5C 137.536,247.906 137.369,247.239 137.5,246.5 Z"/></g>
<g><path style="opacity:0.004" fill="#fefffe" d="M 161.5,257.5 C 162.833,258.167 162.833,258.167 161.5,257.5 Z"/></g>
<g><path style="opacity:0.006" fill="#000000" d="M 46.5,271.5 C 47.1667,270.167 47.8333,270.167 48.5,271.5C 47.8333,271.5 47.1667,271.5 46.5,271.5 Z"/></g>
</svg>
