<?xml version="1.0" encoding="UTF-8"?>
<!DOCTYPE svg PUBLIC "-//W3C//DTD SVG 1.1//EN" "http://www.w3.org/Graphics/SVG/1.1/DTD/svg11.dtd">
<svg xmlns="http://www.w3.org/2000/svg" version="1.1" width="224px" height="357px" style="shape-rendering:geometricPrecision; text-rendering:geometricPrecision; image-rendering:optimizeQuality; fill-rule:evenodd; clip-rule:evenodd" xmlns:xlink="http://www.w3.org/1999/xlink">
<g><path style="opacity:0.004" fill="#fdfdfd" d="M 94.5,-0.5 C 96.1667,-0.5 97.8333,-0.5 99.5,-0.5C 98.948,2.32427 97.2813,4.1576 94.5,5C 94.8333,5.33333 95.1667,5.66667 95.5,6C 93.8333,6.33333 92.1667,6.66667 90.5,7C 91.7112,7.89277 91.7112,8.7261 90.5,9.5C 86.0274,12.6431 82.0274,15.6431 78.5,18.5C 76.9148,21.9131 77.4148,24.9131 80,27.5C 81.2572,34.1448 81.9239,40.8115 82,47.5C 80.2589,44.6907 79.0922,41.6907 78.5,38.5C 78.0074,36.1944 77.6741,33.861 77.5,31.5C 78.4387,30.6726 78.1054,30.0059 76.5,29.5C 76.5,29.1667 76.5,28.8333 76.5,28.5C 76.9382,28.5654 77.2716,28.3988 77.5,28C 76.9341,27.0053 76.2674,26.172 75.5,25.5C 75.4369,20.6971 75.7703,16.1971 76.5,12C 75.3066,10.9054 73.9733,10.072 72.5,9.5C 72.2155,7.58533 72.5489,5.91866 73.5,4.5C 74.8333,4.5 76.1667,4.5 77.5,4.5C 78.8005,5.88159 79.6339,7.54826 80,9.5C 81.6995,8.59391 83.5328,8.26057 85.5,8.5C 85.5,7.5 85.5,6.5 85.5,5.5C 87.1992,5.66018 88.8659,5.49351 90.5,5C 91.6647,3.0083 92.998,1.17496 94.5,-0.5 Z M 74.5,5.5 C 76.7602,6.23764 76.9269,7.23764 75,8.5C 73.2716,7.64767 73.105,6.64767 74.5,5.5 Z"/></g>
<g><path style="opacity:0.004" fill="#fefffe" d="M 162.5,-0.5 C 163.167,-0.5 163.833,-0.5 164.5,-0.5C 163.833,0.833333 163.167,0.833333 162.5,-0.5 Z"/></g>
<g><path style="opacity:0.004" fill="#fefffe" d="M 218.5,-0.5 C 220.167,-0.5 221.833,-0.5 223.5,-0.5C 223.5,1.83333 223.5,4.16667 223.5,6.5C 220.131,5.44083 218.464,3.1075 218.5,-0.5 Z"/></g>
<g><path style="opacity:0.004" fill="#fefffe" d="M 186.5,5.5 C 184.304,5.40999 182.137,5.07665 180,4.5C 177.347,5.62846 174.681,6.62846 172,7.5C 171.586,7.04265 171.086,6.70931 170.5,6.5C 167.767,9.23941 164.767,11.5727 161.5,13.5C 159.833,13.5 158.167,13.5 156.5,13.5C 155.218,9.04608 152.885,5.21275 149.5,2C 150.167,1.66667 150.833,1.33333 151.5,1C 163.51,0.797494 175.177,2.29749 186.5,5.5 Z"/></g>
<g><path style="opacity:0.016" fill="#b7b7b7" d="M 73.5,-0.5 C 79.8333,-0.5 86.1667,-0.5 92.5,-0.5C 89.8937,2.80885 86.5604,5.14218 82.5,6.5C 81.086,5.37596 79.586,4.37596 78,3.5C 77.6012,3.72845 77.4346,4.06178 77.5,4.5C 76.1667,4.5 74.8333,4.5 73.5,4.5C 73.5,2.83333 73.5,1.16667 73.5,-0.5 Z"/></g>
<g><path style="opacity:0.008" fill="#828282" d="M 92.5,-0.5 C 93.1667,-0.5 93.8333,-0.5 94.5,-0.5C 92.998,1.17496 91.6647,3.0083 90.5,5C 88.8659,5.49351 87.1992,5.66018 85.5,5.5C 85.5,6.5 85.5,7.5 85.5,8.5C 83.5328,8.26057 81.6995,8.59391 80,9.5C 79.6339,7.54826 78.8005,5.88159 77.5,4.5C 77.4346,4.06178 77.6012,3.72845 78,3.5C 79.586,4.37596 81.086,5.37596 82.5,6.5C 86.5604,5.14218 89.8937,2.80885 92.5,-0.5 Z"/></g>
<g><path style="opacity:0.004" fill="#fefffe" d="M 186.5,5.5 C 187.833,6.16667 187.833,6.16667 186.5,5.5 Z"/></g>
<g><path style="opacity:0.004" fill="#fefffe" d="M 190.5,6.5 C 189.761,6.63101 189.094,6.46434 188.5,6C 189.437,5.30831 190.103,5.47498 190.5,6.5 Z"/></g>
<g><path style="opacity:0.004" fill="#fefffe" d="M 190.5,6.5 C 194.187,7.176 197.52,8.676 200.5,11C 198.154,10.9211 195.987,10.0877 194,8.5C 193.667,8.83333 193.333,9.16667 193,9.5C 192.302,8.30943 191.469,7.30943 190.5,6.5 Z"/></g>
<g><path style="opacity:0.004" fill="#000000" d="M 156.5,13.5 C 158.167,13.5 159.833,13.5 161.5,13.5C 159.331,16.8416 157.664,16.8416 156.5,13.5 Z"/></g>
<g><path style="opacity:0.012" fill="#b294ad" d="M 72.5,9.5 C 73.9733,10.072 75.3066,10.9054 76.5,12C 75.7703,16.1971 75.4369,20.6971 75.5,25.5C 75.1667,25.5 74.8333,25.5 74.5,25.5C 73.4722,20.2547 72.8055,14.9214 72.5,9.5 Z"/></g>
<g><path style="opacity:0.008" fill="#fe80ff" d="M 75.5,25.5 C 76.2674,26.172 76.9341,27.0053 77.5,28C 77.2716,28.3988 76.9382,28.5654 76.5,28.5C 75.596,27.791 75.2627,26.791 75.5,25.5 Z"/></g>
<g><path style="opacity:0.016" fill="#b3b3b3" d="M 74.5,25.5 C 74.8333,25.5 75.1667,25.5 75.5,25.5C 75.2627,26.791 75.596,27.791 76.5,28.5C 76.5,28.8333 76.5,29.1667 76.5,29.5C 76.3284,30.4916 76.6618,31.1583 77.5,31.5C 77.6741,33.861 78.0074,36.1944 78.5,38.5C 76.1022,34.597 74.7689,30.2637 74.5,25.5 Z"/></g>
<g><path style="opacity:0.008" fill="#fe80ff" d="M 76.5,29.5 C 78.1054,30.0059 78.4387,30.6726 77.5,31.5C 76.6618,31.1583 76.3284,30.4916 76.5,29.5 Z"/></g>
<g><path style="opacity:0.004" fill="#000000" d="M 223.5,37.5 C 223.5,38.1667 223.5,38.8333 223.5,39.5C 222.167,38.8333 222.167,38.1667 223.5,37.5 Z"/></g>
<g><path style="opacity:0.004" fill="#fefffe" d="M 102.5,41.5 C 101.711,41.2172 101.044,40.7172 100.5,40C 101.816,39.4719 102.483,39.9719 102.5,41.5 Z"/></g>
<g><path style="opacity:0.004" fill="#fefffe" d="M 114.5,47.5 C 115.868,48.4718 117.368,49.4718 119,50.5C 121.486,54.8012 123.986,59.1345 126.5,63.5C 126.331,65.1173 125.997,66.784 125.5,68.5C 119.001,64.2357 118.334,64.7357 123.5,70C 120.987,71.0389 118.653,72.3722 116.5,74C 118.8,75.1128 119.133,76.6128 117.5,78.5C 117.723,81.5339 119.056,83.8672 121.5,85.5C 120.609,86.5896 119.609,86.5896 118.5,85.5C 114.415,82.8903 110.081,79.8903 105.5,76.5C 104.948,74.9974 104.948,73.3307 105.5,71.5C 108.346,71.9699 110.679,71.1366 112.5,69C 111.267,65.7655 109.267,63.0989 106.5,61C 107.117,58.6124 107.45,56.279 107.5,54C 106.391,51.9534 105.724,49.7867 105.5,47.5C 106.222,47.9175 106.722,48.5842 107,49.5C 107.892,46.5475 107.392,43.8808 105.5,41.5C 107.353,40.2404 109.186,40.2404 111,41.5C 111.424,44.0254 112.59,46.0254 114.5,47.5 Z"/></g>
<g><path style="opacity:0.004" fill="#fefffe" d="M 102.5,41.5 C 103.674,42.5137 104.34,43.847 104.5,45.5C 102.824,44.8166 102.157,43.4832 102.5,41.5 Z"/></g>
<g><path style="opacity:0.004" fill="#fefffe" d="M 104.5,45.5 C 105.338,45.8417 105.672,46.5084 105.5,47.5C 104.662,47.1583 104.328,46.4916 104.5,45.5 Z"/></g>
<g><path style="opacity:0.004" fill="#fefffe" d="M 114.5,46.5 C 115.833,47.1667 115.833,47.1667 114.5,46.5 Z"/></g>
<g><path style="opacity:0.004" fill="#fefffe" d="M 82.5,48.5 C 83.8333,49.1667 83.8333,49.1667 82.5,48.5 Z"/></g>
<g><path style="opacity:0.998" fill="#372d34" d="M 223.5,334.5 C 223.5,337.833 223.5,341.167 223.5,344.5C 222.751,343.469 222.085,342.302 221.5,341C 210.428,340.932 199.428,340.265 188.5,339C 181.333,335.833 176.167,330.667 173,323.5C 171.687,267.537 171.021,211.537 171,155.5C 168.5,147.667 163.333,142.5 155.5,140C 127.167,139.667 98.8333,139.333 70.5,139C 58.8583,137.694 51.0249,131.527 47,120.5C 46.9468,88.8033 46.2801,57.1367 45,25.5C 42.5587,19.3924 38.3921,14.8924 32.5,12C 21.8977,10.5973 11.231,10.0973 0.5,10.5C 0.5,9.16667 0.5,7.83333 0.5,6.5C 11.231,6.09729 21.8977,6.59729 32.5,8C 39.7288,10.6863 44.8954,15.5196 48,22.5C 49.3107,53.1056 49.9773,83.7723 50,114.5C 51.3874,126.22 57.8874,133.054 69.5,135C 98.1667,135.333 126.833,135.667 155.5,136C 166.111,138.944 172.611,145.777 175,156.5C 175.016,212.212 175.683,267.878 177,323.5C 179.892,329.392 184.392,333.559 190.5,336C 200.788,337.505 211.122,337.838 221.5,337C 222.066,336.005 222.733,335.172 223.5,334.5 Z"/></g>
<g><path style="opacity:0.005" fill="#fafafa" d="M 137.5,90.5 C 139.805,91.9894 142.138,93.4894 144.5,95C 150.463,96.1477 156.13,98.1477 161.5,101C 151.422,100.062 141.755,97.3956 132.5,93C 134.315,92.2432 135.981,91.4098 137.5,90.5 Z"/></g>
<g><path style="opacity:0.208" fill="#3b3138" d="M 223.5,109.5 C 223.5,112.833 223.5,116.167 223.5,119.5C 220.833,116.167 220.833,112.833 223.5,109.5 Z"/></g>
<g><path style="opacity:1" fill="#3e343b" d="M 223.5,184.5 C 223.5,187.833 223.5,191.167 223.5,194.5C 220.954,191.201 220.954,187.868 223.5,184.5 Z"/></g>
<g><path style="opacity:1" fill="#3e353b" d="M 223.5,259.5 C 223.5,262.833 223.5,266.167 223.5,269.5C 220.954,266.132 220.954,262.799 223.5,259.5 Z"/></g>
</svg>
